<svg width="181" height="52" viewBox="0 0 181 52" fill="none" xmlns="http://www.w3.org/2000/svg">
<path d="M179.248 46.0029C179.248 48.774 176.956 51.0187 174.122 51.0187H6.37999C3.54706 51.0187 1.24756 48.774 1.24756 46.0029V6.00333C1.24756 3.23349 3.54706 0.980957 6.37999 0.980957H174.12C176.956 0.980957 179.246 3.23349 179.246 6.00333L179.248 46.0029Z" fill="#020202"/>
<path d="M173.581 1.04162C176.668 1.04162 179.179 3.4905 179.179 6.5V45.5C179.179 48.5095 176.668 50.9584 173.581 50.9584H6.91423C3.82756 50.9584 1.31589 48.5095 1.31589 45.5V6.5C1.31589 3.4905 3.82756 1.04162 6.91423 1.04162H173.581ZM173.581 2.74817e-06H6.91423C3.24923 2.74817e-06 0.247559 2.92663 0.247559 6.5V45.5C0.247559 49.0734 3.24923 52 6.91423 52H173.581C177.246 52 180.248 49.0734 180.248 45.5V6.5C180.248 2.92663 177.246 2.74817e-06 173.581 2.74817e-06Z" fill="#A6A6A6"/>
<path d="M40.418 25.7191C40.3794 21.5292 43.9367 19.4908 44.0993 19.3959C42.0847 16.532 38.962 16.1407 37.8647 16.1095C35.242 15.8404 32.698 17.6396 31.362 17.6396C29.9994 17.6396 27.942 16.1355 25.7247 16.1797C22.8713 16.2226 20.202 17.8333 18.738 20.3345C15.7167 25.4344 17.97 32.9289 20.8647 37.0512C22.3127 39.0701 24.0047 41.3243 26.2194 41.245C28.386 41.1579 29.1954 39.8982 31.81 39.8982C34.4007 39.8982 35.1607 41.245 37.4193 41.1943C39.7447 41.1579 41.2087 39.1663 42.606 37.1292C44.2793 34.8152 44.9514 32.5363 44.978 32.4193C44.9234 32.4011 40.462 30.741 40.418 25.7191Z" fill="white"/>
<path d="M36.1514 13.3977C37.3167 11.9768 38.114 10.0437 37.8927 8.08203C36.206 8.15483 34.0967 9.21953 32.882 10.6092C31.8074 11.8338 30.8474 13.841 31.0954 15.7286C32.99 15.8664 34.9354 14.7965 36.1514 13.3977Z" fill="white"/>
<path d="M71.7744 40.9552H68.7464L67.0878 35.8735H61.3224L59.7424 40.9552H56.7944L62.5064 23.6548H66.0344L71.7744 40.9552ZM66.5878 33.7415L65.0878 29.224C64.9291 28.7625 64.6318 27.6757 64.1931 25.9649H64.1398C63.9651 26.7007 63.6838 27.7875 63.2971 29.224L61.8238 33.7415H66.5878Z" fill="white"/>
<path d="M86.4639 34.5647C86.4639 36.6863 85.8759 38.3633 84.6999 39.5944C83.6466 40.6903 82.3386 41.2376 80.7772 41.2376C79.0919 41.2376 77.8812 40.6474 77.1439 39.467H77.0906V46.0385H74.2479V32.5874C74.2479 31.2536 74.2119 29.8847 74.1426 28.4807H76.6426L76.8012 30.458H76.8546C77.8026 28.9682 79.2412 28.2246 81.1719 28.2246C82.6812 28.2246 83.9412 28.8057 84.9492 29.9692C85.9599 31.134 86.4639 32.6654 86.4639 34.5647ZM83.5679 34.6661C83.5679 33.4519 83.2879 32.4509 82.7252 31.6631C82.1106 30.8415 81.2852 30.4307 80.2506 30.4307C79.5492 30.4307 78.9119 30.6595 78.3426 31.1106C77.7719 31.5656 77.3986 32.1597 77.2239 32.8955C77.1359 33.2387 77.0919 33.5195 77.0919 33.7405V35.8205C77.0919 36.7279 77.3772 37.4936 77.9479 38.1189C78.5186 38.7442 79.2599 39.0562 80.1719 39.0562C81.2426 39.0562 82.0759 38.6532 82.6719 37.8498C83.2692 37.0451 83.5679 35.9843 83.5679 34.6661Z" fill="white"/>
<path d="M101.18 34.5647C101.18 36.6863 100.592 38.3633 99.4145 39.5944C98.3625 40.6903 97.0545 41.2376 95.4932 41.2376C93.8079 41.2376 92.5972 40.6474 91.8612 39.467H91.8079V46.0385H88.9652V32.5874C88.9652 31.2536 88.9292 29.8847 88.8599 28.4807H91.3599L91.5185 30.458H91.5719C92.5185 28.9682 93.9572 28.2246 95.8892 28.2246C97.3972 28.2246 98.6572 28.8057 99.6679 29.9692C100.675 31.134 101.18 32.6654 101.18 34.5647ZM98.2839 34.6661C98.2839 33.4519 98.0025 32.4509 97.4399 31.6631C96.8252 30.8415 96.0025 30.4307 94.9665 30.4307C94.2639 30.4307 93.6279 30.6595 93.0572 31.1106C92.4865 31.5656 92.1145 32.1597 91.9399 32.8955C91.8532 33.2387 91.8079 33.5195 91.8079 33.7405V35.8205C91.8079 36.7279 92.0932 37.4936 92.6612 38.1189C93.2319 38.7429 93.9732 39.0562 94.8879 39.0562C95.9585 39.0562 96.7919 38.6532 97.3879 37.8498C97.9852 37.0451 98.2839 35.9843 98.2839 34.6661Z" fill="white"/>
<path d="M117.633 36.1037C117.633 37.5753 117.109 38.7726 116.057 39.6969C114.901 40.707 113.292 41.2114 111.224 41.2114C109.314 41.2114 107.784 40.8526 106.625 40.1337L107.284 37.8236C108.532 38.5594 109.901 38.9286 111.393 38.9286C112.464 38.9286 113.297 38.692 113.896 38.2214C114.492 37.7508 114.789 37.119 114.789 36.3312C114.789 35.6292 114.544 35.0377 114.052 34.558C113.562 34.0783 112.745 33.6324 111.604 33.2203C108.497 32.0906 106.945 30.4357 106.945 28.2595C106.945 26.8373 107.489 25.6712 108.578 24.7638C109.664 23.8551 111.112 23.4014 112.922 23.4014C114.537 23.4014 115.878 23.6757 116.949 24.223L116.238 26.4824C115.238 25.952 114.108 25.6868 112.842 25.6868C111.842 25.6868 111.061 25.9273 110.501 26.4057C110.028 26.8334 109.79 27.3547 109.79 27.9722C109.79 28.656 110.061 29.2215 110.605 29.6661C111.078 30.0769 111.938 30.5215 113.186 31.0012C114.713 31.6005 115.834 32.3012 116.556 33.1046C117.274 33.9054 117.633 34.9077 117.633 36.1037Z" fill="white"/>
<path d="M127.032 30.5604H123.898V36.6171C123.898 38.1576 124.45 38.9272 125.557 38.9272C126.065 38.9272 126.486 38.8843 126.82 38.7985L126.898 40.9032C126.338 41.1073 125.601 41.21 124.688 41.21C123.565 41.21 122.688 40.8759 122.054 40.209C121.424 39.5408 121.106 38.4202 121.106 36.8459V30.5578H119.24V28.4778H121.106V26.1937L123.898 25.3721V28.4778H127.032V30.5604Z" fill="white"/>
<path d="M141.169 34.6151C141.169 36.5326 140.607 38.1069 139.484 39.338C138.307 40.6055 136.744 41.2373 134.796 41.2373C132.919 41.2373 131.424 40.6302 130.309 39.416C129.195 38.2018 128.637 36.6691 128.637 34.8218C128.637 32.8887 129.211 31.3053 130.361 30.0742C131.509 28.8418 133.059 28.2256 135.007 28.2256C136.884 28.2256 138.395 28.8327 139.535 30.0482C140.625 31.2273 141.169 32.7496 141.169 34.6151ZM138.22 34.7048C138.22 33.5543 137.968 32.5676 137.457 31.7447C136.861 30.7489 136.009 30.2523 134.905 30.2523C133.763 30.2523 132.895 30.7502 132.299 31.7447C131.788 32.5689 131.536 33.5712 131.536 34.7568C131.536 35.9073 131.788 36.894 132.299 37.7156C132.913 38.7114 133.772 39.208 134.88 39.208C135.965 39.208 136.817 38.701 137.432 37.6896C137.956 36.8511 138.22 35.854 138.22 34.7048Z" fill="white"/>
<path d="M150.409 30.9182C150.128 30.8675 149.828 30.8415 149.513 30.8415C148.513 30.8415 147.74 31.2094 147.196 31.9465C146.723 32.5965 146.485 33.4181 146.485 34.41V40.9555H143.644L143.671 32.4093C143.671 30.9715 143.635 29.6624 143.564 28.482H146.04L146.144 30.8688H146.223C146.523 30.0485 146.996 29.3881 147.644 28.8928C148.277 28.4469 148.961 28.2246 149.699 28.2246C149.961 28.2246 150.199 28.2428 150.409 28.2753V30.9182Z" fill="white"/>
<path d="M163.123 34.1279C163.123 34.6245 163.089 35.0431 163.019 35.385H154.491C154.524 36.6174 154.936 37.5599 155.728 38.2099C156.447 38.791 157.376 39.0822 158.517 39.0822C159.78 39.0822 160.932 38.8859 161.968 38.492L162.413 40.416C161.203 40.9308 159.773 41.1869 158.124 41.1869C156.14 41.1869 154.583 40.6175 153.449 39.48C152.319 38.3425 151.752 36.815 151.752 34.8988C151.752 33.0177 152.279 31.4512 153.333 30.2019C154.437 28.8681 155.929 28.2012 157.807 28.2012C159.651 28.2012 161.047 28.8681 161.995 30.2019C162.745 31.2614 163.123 32.5718 163.123 34.1279ZM160.412 33.409C160.431 32.5874 160.245 31.8776 159.86 31.2783C159.368 30.5074 158.612 30.1226 157.595 30.1226C156.665 30.1226 155.909 30.4983 155.332 31.2523C154.859 31.8516 154.577 32.5705 154.491 33.4077H160.412V33.409Z" fill="white"/>
<path d="M65.6478 13.0118C65.6478 14.5419 65.1771 15.6937 64.2371 16.4672C63.3664 17.1809 62.1291 17.5384 60.5264 17.5384C59.7318 17.5384 59.0518 17.5046 58.4824 17.437V9.0767C59.2251 8.9597 60.0251 8.8999 60.8891 8.8999C62.4158 8.8999 63.5664 9.2236 64.3424 9.871C65.2118 10.6029 65.6478 11.6494 65.6478 13.0118ZM64.1744 13.0495C64.1744 12.0576 63.9051 11.2971 63.3664 10.7667C62.8278 10.2376 62.0411 9.9724 61.0051 9.9724C60.5651 9.9724 60.1904 10.001 59.8798 10.0608V16.4165C60.0518 16.4425 60.3664 16.4542 60.8238 16.4542C61.8931 16.4542 62.7184 16.1643 63.2998 15.5845C63.8811 15.0047 64.1744 14.1597 64.1744 13.0495Z" fill="white"/>
<path d="M73.4597 14.3482C73.4597 15.2907 73.1837 16.0629 72.6317 16.6687C72.053 17.2914 71.2864 17.6021 70.329 17.6021C69.4064 17.6021 68.6717 17.3044 68.1237 16.7064C67.577 16.1097 67.3037 15.357 67.3037 14.4496C67.3037 13.5006 67.585 12.7219 68.1504 12.1174C68.7157 11.5129 69.4757 11.21 70.433 11.21C71.3557 11.21 72.097 11.5077 72.6584 12.1044C73.1917 12.6842 73.4597 13.433 73.4597 14.3482ZM72.0104 14.3924C72.0104 13.8269 71.885 13.342 71.6357 12.9377C71.3424 12.4489 70.925 12.2045 70.3824 12.2045C69.821 12.2045 69.3944 12.4489 69.101 12.9377C68.8504 13.342 68.7264 13.8347 68.7264 14.4171C68.7264 14.9826 68.8517 15.4675 69.101 15.8718C69.4037 16.3606 69.825 16.605 70.369 16.605C70.9024 16.605 71.321 16.3567 71.6224 15.8588C71.881 15.4467 72.0104 14.9579 72.0104 14.3924Z" fill="white"/>
<path d="M83.9343 11.335L81.9676 17.4632H80.6876L79.873 14.8021C79.6663 14.1378 79.4983 13.4774 79.3676 12.8222H79.3423C79.221 13.4956 79.053 14.1547 78.837 14.8021L77.9716 17.4632H76.677L74.8276 11.335H76.2636L76.9743 14.2483C77.1463 14.9373 77.2876 15.5938 77.401 16.2152H77.4263C77.5303 15.703 77.7023 15.0504 77.945 14.2613L78.837 11.3363H79.9756L80.8303 14.1989C81.037 14.897 81.205 15.5691 81.3343 16.2165H81.373C81.4676 15.586 81.6103 14.9139 81.7996 14.1989L82.5623 11.3363H83.9343V11.335Z" fill="white"/>
<path d="M91.1783 17.463H89.7809V13.953C89.7809 12.8714 89.3596 12.3306 88.5143 12.3306C88.0996 12.3306 87.7649 12.4788 87.5049 12.7765C87.2476 13.0742 87.1169 13.4252 87.1169 13.8269V17.4617H85.7196V13.0859C85.7196 12.5477 85.7023 11.964 85.6689 11.3322H86.8969L86.9623 12.2903H87.0009C87.1636 11.9926 87.4063 11.7469 87.7249 11.5506C88.1036 11.3218 88.5276 11.2061 88.9916 11.2061C89.5783 11.2061 90.0663 11.3907 90.4543 11.7612C90.9369 12.2149 91.1783 12.8922 91.1783 13.7918V17.463Z" fill="white"/>
<path d="M95.0317 17.463H93.6357V8.52295H95.0317V17.463Z" fill="white"/>
<path d="M103.259 14.3482C103.259 15.2907 102.983 16.0629 102.431 16.6687C101.852 17.2914 101.084 17.6021 100.128 17.6021C99.2039 17.6021 98.4692 17.3044 97.9225 16.7064C97.3759 16.1097 97.1025 15.357 97.1025 14.4496C97.1025 13.5006 97.3839 12.7219 97.9492 12.1174C98.5145 11.5129 99.2745 11.21 100.231 11.21C101.155 11.21 101.895 11.5077 102.457 12.1044C102.991 12.6842 103.259 13.433 103.259 14.3482ZM101.808 14.3924C101.808 13.8269 101.683 13.342 101.433 12.9377C101.141 12.4489 100.723 12.2045 100.181 12.2045C99.6185 12.2045 99.1919 12.4489 98.8999 12.9377C98.6492 13.342 98.5252 13.8347 98.5252 14.4171C98.5252 14.9826 98.6505 15.4675 98.8999 15.8718C99.2025 16.3606 99.6239 16.605 100.168 16.605C100.701 16.605 101.119 16.3567 101.42 15.8588C101.68 15.4467 101.808 14.9579 101.808 14.3924Z" fill="white"/>
<path d="M110.021 17.463H108.767L108.663 16.7571H108.624C108.195 17.32 107.583 17.6021 106.788 17.6021C106.195 17.6021 105.715 17.4162 105.353 17.047C105.025 16.7116 104.861 16.2943 104.861 15.799C104.861 15.0502 105.181 14.4795 105.825 14.0843C106.468 13.6891 107.372 13.4954 108.536 13.5045V13.3901C108.536 12.5828 108.101 12.1798 107.231 12.1798C106.611 12.1798 106.064 12.3319 105.592 12.6335L105.308 11.7391C105.892 11.3868 106.613 11.21 107.464 11.21C109.107 11.21 109.931 12.055 109.931 13.745V16.0018C109.931 16.6141 109.961 17.1016 110.021 17.463ZM108.571 15.357V14.4119C107.029 14.3859 106.259 14.798 106.259 15.6469C106.259 15.9667 106.347 16.2059 106.527 16.3658C106.707 16.5257 106.936 16.605 107.209 16.605C107.516 16.605 107.803 16.5101 108.064 16.3216C108.327 16.1318 108.488 15.8913 108.548 15.5962C108.563 15.5299 108.571 15.4493 108.571 15.357Z" fill="white"/>
<path d="M117.961 17.463H116.721L116.656 16.4789H116.617C116.221 17.2277 115.546 17.6021 114.598 17.6021C113.841 17.6021 113.21 17.3123 112.71 16.7324C112.21 16.1526 111.961 15.3999 111.961 14.4756C111.961 13.4837 112.232 12.6803 112.776 12.0667C113.302 11.4947 113.948 11.2087 114.716 11.2087C115.56 11.2087 116.15 11.4856 116.486 12.0407H116.513V8.52295H117.912V15.812C117.912 16.4087 117.928 16.9586 117.961 17.463ZM116.513 14.8786V13.8568C116.513 13.68 116.5 13.537 116.474 13.4278C116.396 13.1002 116.226 12.8246 115.969 12.6023C115.709 12.38 115.396 12.2682 115.034 12.2682C114.513 12.2682 114.105 12.4697 113.805 12.874C113.508 13.2783 113.357 13.7944 113.357 14.4249C113.357 15.0307 113.5 15.5221 113.786 15.9004C114.089 16.3034 114.497 16.5049 115.008 16.5049C115.466 16.5049 115.833 16.3372 116.112 16.0005C116.381 15.6898 116.513 15.3154 116.513 14.8786Z" fill="white"/>
<path d="M129.912 14.3482C129.912 15.2907 129.636 16.0629 129.084 16.6687C128.505 17.2914 127.74 17.6021 126.781 17.6021C125.86 17.6021 125.125 17.3044 124.576 16.7064C124.029 16.1097 123.756 15.357 123.756 14.4496C123.756 13.5006 124.037 12.7219 124.603 12.1174C125.168 11.5129 125.928 11.21 126.887 11.21C127.808 11.21 128.551 11.5077 129.111 12.1044C129.644 12.6842 129.912 13.433 129.912 14.3482ZM128.464 14.3924C128.464 13.8269 128.339 13.342 128.089 12.9377C127.795 12.4489 127.379 12.2045 126.835 12.2045C126.275 12.2045 125.848 12.4489 125.553 12.9377C125.303 13.342 125.179 13.8347 125.179 14.4171C125.179 14.9826 125.304 15.4675 125.553 15.8718C125.856 16.3606 126.277 16.605 126.821 16.605C127.355 16.605 127.775 16.3567 128.076 15.8588C128.333 15.4467 128.464 14.9579 128.464 14.3924Z" fill="white"/>
<path d="M137.425 17.463H136.029V13.953C136.029 12.8714 135.608 12.3306 134.761 12.3306C134.346 12.3306 134.012 12.4788 133.753 12.7765C133.494 13.0742 133.365 13.4252 133.365 13.8269V17.4617H131.966V13.0859C131.966 12.5477 131.95 11.964 131.917 11.3322H133.144L133.209 12.2903H133.248C133.412 11.9926 133.654 11.7469 133.972 11.5506C134.352 11.3218 134.774 11.2061 135.24 11.2061C135.825 11.2061 136.313 11.3907 136.701 11.7612C137.185 12.2149 137.425 12.8922 137.425 13.7918V17.463Z" fill="white"/>
<path d="M146.829 12.3553H145.29V15.3323C145.29 16.0889 145.564 16.4672 146.105 16.4672C146.356 16.4672 146.564 16.4464 146.728 16.4035L146.764 17.437C146.488 17.5384 146.125 17.5891 145.678 17.5891C145.126 17.5891 144.697 17.4253 144.386 17.0977C144.074 16.7701 143.92 16.2189 143.92 15.4454V12.3553H143.001V11.3348H143.92V10.2116L145.289 9.80859V11.3335H146.828V12.3553H146.829Z" fill="white"/>
<path d="M154.226 17.463H152.828V13.979C152.828 12.8805 152.406 12.3306 151.562 12.3306C150.914 12.3306 150.472 12.6491 150.229 13.2861C150.188 13.42 150.164 13.5838 150.164 13.7762V17.4618H148.768V8.52295H150.164V12.2162H150.19C150.63 11.5441 151.261 11.2087 152.078 11.2087C152.657 11.2087 153.136 11.3933 153.516 11.7638C153.989 12.2253 154.226 12.9117 154.226 13.8191V17.463Z" fill="white"/>
<path d="M161.857 14.1089C161.857 14.3533 161.838 14.5587 161.805 14.7264H157.614C157.633 15.3322 157.833 15.7937 158.221 16.1135C158.576 16.3995 159.033 16.5425 159.593 16.5425C160.213 16.5425 160.778 16.4463 161.288 16.2526L161.506 17.199C160.91 17.4512 160.209 17.5773 159.397 17.5773C158.424 17.5773 157.657 17.2978 157.102 16.7388C156.545 16.1798 156.269 15.4297 156.269 14.4885C156.269 13.5642 156.526 12.7946 157.045 12.181C157.586 11.5258 158.318 11.1982 159.242 11.1982C160.146 11.1982 160.833 11.5258 161.297 12.181C161.672 12.701 161.857 13.3445 161.857 14.1089ZM160.524 13.7566C160.534 13.3523 160.442 13.0039 160.253 12.7101C160.01 12.3318 159.641 12.142 159.141 12.142C158.685 12.142 158.313 12.3266 158.029 12.6971C157.797 12.9922 157.66 13.3445 157.614 13.7566H160.524Z" fill="white"/>
</svg>
