<svg width="180" height="52" viewBox="0 0 180 52" fill="none" xmlns="http://www.w3.org/2000/svg">
<path d="M173.343 52H6.90506C3.2451 52 0.247559 49.0734 0.247559 45.5V6.5C0.247559 2.92663 3.2451 2.74817e-06 6.90506 2.74817e-06H173.343C177.003 2.74817e-06 180 2.92663 180 6.5V45.5C180 49.0734 177.003 52 173.343 52Z" fill="#020202"/>
<path d="M173.343 1.04162C176.425 1.04162 178.933 3.4905 178.933 6.5V45.5C178.933 48.5095 176.425 50.9584 173.343 50.9584H6.90506C3.82264 50.9584 1.31442 48.5095 1.31442 45.5V6.5C1.31442 3.4905 3.82264 1.04162 6.90506 1.04162H173.343ZM173.343 2.74817e-06H6.90506C3.2451 2.74817e-06 0.247559 2.92663 0.247559 6.5V45.5C0.247559 49.0734 3.2451 52 6.90506 52H173.343C177.003 52 180 49.0734 180 45.5V6.5C180 2.92663 177.003 2.74817e-06 173.343 2.74817e-06Z" fill="#A6A6A6"/>
<path d="M63.3841 13.3167C63.3841 14.4022 63.0513 15.2716 62.3955 15.9199C61.6415 16.6886 60.6596 17.0753 59.4562 17.0753C58.3061 17.0753 57.3241 16.6821 56.5186 15.9069C55.7114 15.1204 55.3086 14.1552 55.3086 12.9998C55.3086 11.8444 55.7114 10.8792 56.5186 10.0992C57.3241 9.31757 58.3061 8.92432 59.4562 8.92432C60.0288 8.92432 60.5747 9.03969 61.0956 9.25419C61.6149 9.47032 62.0377 9.76282 62.3439 10.1236L61.6482 10.8093C61.1139 10.1934 60.3866 9.88957 59.4562 9.88957C58.6174 9.88957 57.89 10.1756 57.2726 10.7524C56.6617 11.3309 56.3555 12.0801 56.3555 12.9998C56.3555 13.9196 56.6617 14.6752 57.2726 15.2537C57.89 15.8241 58.6174 16.1166 59.4562 16.1166C60.3467 16.1166 61.0956 15.8241 61.6865 15.2472C62.0759 14.8653 62.2973 14.3388 62.3556 13.6661H59.4562V12.7268H63.3242C63.3708 12.9299 63.3841 13.1266 63.3841 13.3167Z" fill="white" stroke="white" stroke-width="0.16" stroke-miterlimit="10"/>
<path d="M69.5203 10.0602H65.887V12.5302H69.1625V13.4694H65.887V15.9394H69.5203V16.8965H64.8584V9.10303H69.5203V10.0602Z" fill="white" stroke="white" stroke-width="0.16" stroke-miterlimit="10"/>
<path d="M73.8514 16.8965H72.8228V10.0602H70.5942V9.10303H76.0817V10.0602H73.8514V16.8965Z" fill="white" stroke="white" stroke-width="0.16" stroke-miterlimit="10"/>
<path d="M80.0527 16.8965V9.10303H81.0797V16.8965H80.0527Z" fill="white" stroke="white" stroke-width="0.16" stroke-miterlimit="10"/>
<path d="M85.6317 16.8965H84.6114V10.0602H82.3745V9.10303H87.8686V10.0602H85.6317V16.8965Z" fill="white" stroke="white" stroke-width="0.16" stroke-miterlimit="10"/>
<path d="M98.2575 15.8939C97.4702 16.6821 96.4949 17.0753 95.3315 17.0753C94.1615 17.0753 93.1861 16.6821 92.3989 15.8939C91.6133 15.1074 91.2222 14.1422 91.2222 12.9998C91.2222 11.8574 91.6133 10.8922 92.3989 10.1057C93.1861 9.31757 94.1615 8.92432 95.3315 8.92432C96.4883 8.92432 97.4636 9.31757 98.2508 10.1122C99.0431 10.9052 99.4342 11.8639 99.4342 12.9998C99.4342 14.1422 99.0431 15.1074 98.2575 15.8939ZM93.1595 15.2407C93.752 15.8241 94.4727 16.1166 95.3315 16.1166C96.1837 16.1166 96.911 15.8241 97.4969 15.2407C98.0877 14.6573 98.3873 13.9082 98.3873 12.9998C98.3873 12.0914 98.0877 11.3423 97.4969 10.7589C96.911 10.1756 96.1837 9.88307 95.3315 9.88307C94.4727 9.88307 93.752 10.1756 93.1595 10.7589C92.5687 11.3423 92.2691 12.0914 92.2691 12.9998C92.2691 13.9082 92.5687 14.6573 93.1595 15.2407Z" fill="white" stroke="white" stroke-width="0.16" stroke-miterlimit="10"/>
<path d="M100.877 16.8965V9.10303H102.126L106.007 15.1643H106.052L106.007 13.666V9.10303H107.034V16.8965H105.962L101.898 10.5363H101.853L101.898 12.041V16.8965H100.877Z" fill="white" stroke="white" stroke-width="0.16" stroke-miterlimit="10"/>
<path d="M90.9691 28.2783C87.8417 28.2783 85.2869 30.602 85.2869 33.8082C85.2869 36.9883 87.8417 39.3364 90.9691 39.3364C94.1031 39.3364 96.6579 36.9883 96.6579 33.8082C96.6579 30.602 94.1031 28.2783 90.9691 28.2783ZM90.9691 37.1589C89.2531 37.1589 87.7768 35.776 87.7768 33.8082C87.7768 31.8143 89.2531 30.4558 90.9691 30.4558C92.6851 30.4558 94.168 31.8143 94.168 33.8082C94.168 35.776 92.6851 37.1589 90.9691 37.1589ZM78.5712 28.2783C75.4371 28.2783 72.889 30.602 72.889 33.8082C72.889 36.9883 75.4371 39.3364 78.5712 39.3364C81.7035 39.3364 84.2533 36.9883 84.2533 33.8082C84.2533 30.602 81.7035 28.2783 78.5712 28.2783ZM78.5712 37.1589C76.8535 37.1589 75.3722 35.776 75.3722 33.8082C75.3722 31.8143 76.8535 30.4558 78.5712 30.4558C80.2871 30.4558 81.7634 31.8143 81.7634 33.8082C81.7634 35.776 80.2871 37.1589 78.5712 37.1589ZM63.8181 29.9732V32.3229H69.5652C69.3971 33.6359 68.9477 34.6012 68.2587 35.2739C67.4198 36.0864 66.1133 36.9883 63.8181 36.9883C60.2813 36.9883 57.5118 34.2014 57.5118 30.7483C57.5118 27.2952 60.2813 24.5083 63.8181 24.5083C65.7305 24.5083 67.1219 25.2379 68.1488 26.1837L69.8448 24.5278C68.4085 23.1888 66.4978 22.1602 63.8181 22.1602C58.9681 22.1602 54.8921 26.013 54.8921 30.7483C54.8921 35.4835 58.9681 39.3364 63.8181 39.3364C66.4395 39.3364 68.4085 38.4979 69.9563 36.9249C71.5425 35.3763 72.0368 33.1988 72.0368 31.4405C72.0368 30.8945 71.9902 30.3924 71.907 29.9732H63.8181ZM124.145 31.7948C123.677 30.5582 122.234 28.2783 119.295 28.2783C116.382 28.2783 113.957 30.5192 113.957 33.8082C113.957 36.9054 116.357 39.3364 119.575 39.3364C122.176 39.3364 123.677 37.7878 124.295 36.8859L122.364 35.6298C121.72 36.5495 120.843 37.1589 119.575 37.1589C118.315 37.1589 117.411 36.595 116.832 35.4835L124.406 32.4237L124.145 31.7948ZM116.422 33.6359C116.357 31.5039 118.118 30.4119 119.38 30.4119C120.369 30.4119 121.207 30.8945 121.487 31.5852L116.422 33.6359ZM110.266 39H112.756V22.75H110.266V39ZM106.188 29.51H106.105C105.546 28.8633 104.479 28.2783 103.127 28.2783C100.291 28.2783 97.6982 30.7093 97.6982 33.826C97.6982 36.9249 100.291 39.3364 103.127 39.3364C104.479 39.3364 105.546 38.7465 106.105 38.0803H106.188V38.8733C106.188 40.9874 105.031 42.1233 103.166 42.1233C101.644 42.1233 100.701 41.0508 100.311 40.1489L98.1459 41.0313C98.77 42.497 100.423 44.3008 103.166 44.3008C106.085 44.3008 108.548 42.6238 108.548 38.5434V28.6147H106.188V29.51ZM103.34 37.1589C101.624 37.1589 100.188 35.7565 100.188 33.826C100.188 31.8777 101.624 30.4558 103.34 30.4558C105.031 30.4558 106.365 31.8777 106.365 33.826C106.365 35.7565 105.031 37.1589 103.34 37.1589ZM135.802 22.75H129.847V39H132.33V32.8429H135.802C138.56 32.8429 141.265 30.8945 141.265 27.7957C141.265 24.6984 138.554 22.75 135.802 22.75ZM135.867 30.5825H132.33V25.0104H135.867C137.721 25.0104 138.78 26.5135 138.78 27.7957C138.78 29.0534 137.721 30.5825 135.867 30.5825ZM151.218 28.2474C149.424 28.2474 147.558 29.0209 146.791 30.7353L148.994 31.6372C149.469 30.7353 150.341 30.4428 151.263 30.4428C152.551 30.4428 153.857 31.1984 153.877 32.5325V32.7032C153.428 32.4497 152.466 32.0743 151.283 32.0743C148.909 32.0743 146.491 33.3499 146.491 35.7305C146.491 37.908 148.435 39.3104 150.62 39.3104C152.291 39.3104 153.213 38.5743 153.793 37.7179H153.877V38.974H156.276V32.7405C156.276 29.8594 154.072 28.2474 151.218 28.2474ZM150.918 37.1524C150.106 37.1524 148.974 36.7592 148.974 35.776C148.974 34.5183 150.386 34.0357 151.607 34.0357C152.701 34.0357 153.213 34.2713 153.877 34.5817C153.683 36.0864 152.356 37.1524 150.918 37.1524ZM165.014 28.6033L162.159 35.6477H162.075L159.124 28.6033H156.446L160.88 38.4475L158.35 43.9254H160.944L167.777 28.6033H165.014ZM142.63 39H145.12V22.75H142.63V39Z" fill="white"/>
<path d="M14.1419 9.80044C13.7508 10.2002 13.5244 10.8226 13.5244 11.6286V40.3781C13.5244 41.1841 13.7508 41.8064 14.1419 42.2062L14.2384 42.2939L30.739 26.1902V25.8099L14.2384 9.7062L14.1419 9.80044Z" fill="url(#paint0_linear_1323_2514)"/>
<path d="M36.2329 31.5605L30.7388 26.1899V25.8097L36.2395 20.439L36.3627 20.5089L42.8771 24.1278C44.7362 25.1548 44.7362 26.8448 42.8771 27.8783L36.3627 31.4907L36.2329 31.5605Z" fill="url(#paint1_linear_1323_2514)"/>
<path d="M36.3627 31.4907L30.7388 25.9998L14.1416 42.206C14.7591 42.8397 15.766 42.9161 16.9111 42.2823L36.3627 31.4907Z" fill="url(#paint2_linear_1323_2514)"/>
<path d="M36.3627 20.5091L16.9111 9.71751C15.766 9.09025 14.7591 9.16663 14.1416 9.80038L30.7388 26L36.3627 20.5091Z" fill="url(#paint3_linear_1323_2514)"/>
<defs>
<linearGradient id="paint0_linear_1323_2514" x1="29.274" y1="40.6775" x2="7.46312" y2="18.3381" gradientUnits="userSpaceOnUse">
<stop stop-color="#00A0FF"/>
<stop offset="0.0066" stop-color="#00A1FF"/>
<stop offset="0.2601" stop-color="#00BEFF"/>
<stop offset="0.5122" stop-color="#00D2FF"/>
<stop offset="0.7604" stop-color="#00DFFF"/>
<stop offset="1" stop-color="#00E3FF"/>
</linearGradient>
<linearGradient id="paint1_linear_1323_2514" x1="45.2979" y1="25.998" x2="13.0797" y2="25.998" gradientUnits="userSpaceOnUse">
<stop stop-color="#FFE000"/>
<stop offset="0.4087" stop-color="#FFBD00"/>
<stop offset="0.7754" stop-color="#FFA500"/>
<stop offset="1" stop-color="#FF9C00"/>
</linearGradient>
<linearGradient id="paint2_linear_1323_2514" x1="33.3046" y1="23.0149" x2="3.72725" y2="-7.27908" gradientUnits="userSpaceOnUse">
<stop stop-color="#FF3A44"/>
<stop offset="1" stop-color="#C31162"/>
</linearGradient>
<linearGradient id="paint3_linear_1323_2514" x1="9.96375" y1="51.7709" x2="23.1713" y2="38.2434" gradientUnits="userSpaceOnUse">
<stop stop-color="#32A071"/>
<stop offset="0.0685" stop-color="#2DA771"/>
<stop offset="0.4762" stop-color="#15CF74"/>
<stop offset="0.8009" stop-color="#06E775"/>
<stop offset="1" stop-color="#00F076"/>
</linearGradient>
</defs>
</svg>
